<svg xmlns="http://www.w3.org/2000/svg" xmlns:xlink="http://www.w3.org/1999/xlink" width="500" zoomAndPan="magnify" viewBox="0 0 375 374.999991" height="500" preserveAspectRatio="xMidYMid meet" version="1.0"><defs><g/><clipPath id="id1"><path d="M 119.308594 140 L 188 140 L 188 200 L 119.308594 200 Z M 119.308594 140 " clip-rule="nonzero"/></clipPath><clipPath id="id2"><path d="M 187 108.519531 L 255.808594 108.519531 L 255.808594 169 L 187 169 Z M 187 108.519531 " clip-rule="nonzero"/></clipPath></defs><rect x="-37.5" width="450" fill="#ffffff" y="-37.499999" height="449.999989" fill-opacity="1"/><rect x="-37.5" width="450" fill="#0f1120" y="-37.499999" height="449.999989" fill-opacity="1"/><rect x="-37.5" width="450" fill="#ffffff" y="-37.499999" height="449.999989" fill-opacity="1"/><rect x="-37.5" width="450" fill="#0f1120" y="-37.499999" height="449.999989" fill-opacity="1"/><g clip-path="url(#id1)"><path fill="#0652e9" d="M 165.269531 182.492188 L 165.269531 190.777344 L 127.644531 173.351562 L 127.644531 166.628906 L 165.269531 149.203125 L 165.269531 157.488281 L 136.816406 169.910156 L 136.816406 170.066406 Z M 187.617188 140 L 124.691406 140 C 121.722656 140 119.3125 142.402344 119.3125 145.363281 L 119.3125 194.617188 C 119.3125 197.578125 121.722656 199.980469 124.691406 199.980469 L 170.148438 199.980469 L 187.617188 140 " fill-opacity="1" fill-rule="nonzero"/></g><g clip-path="url(#id2)"><path fill="#62e1e9" d="M 247.488281 142.132812 L 209.863281 159.324219 L 209.863281 151.039062 L 238.945312 138.613281 L 238.945312 138.457031 L 209.863281 126.035156 L 209.863281 117.75 L 247.488281 134.941406 Z M 205.085938 108.546875 L 187.617188 168.527344 L 250.4375 168.527344 C 253.410156 168.527344 255.816406 166.125 255.816406 163.164062 L 255.816406 113.910156 C 255.816406 110.949219 253.410156 108.546875 250.4375 108.546875 L 205.085938 108.546875 " fill-opacity="1" fill-rule="nonzero"/></g><g fill="#ffffff" fill-opacity="1"><g transform="translate(93.983938, 237.534858)"><g><path d="M 2.066406 0 L 8.996094 0 C 14.769531 0 19.492188 -4.691406 19.492188 -10.5 C 19.492188 -16.308594 14.769531 -21 8.996094 -21 L 2.066406 -21 Z M 6.683594 -4.09375 L 6.683594 -16.902344 L 8.960938 -16.902344 C 12.285156 -16.902344 14.875 -14.140625 14.875 -10.5 C 14.875 -6.859375 12.285156 -4.09375 8.960938 -4.09375 Z M 6.683594 -4.09375 "/></g></g></g><g fill="#ffffff" fill-opacity="1"><g transform="translate(116.003066, 237.534858)"><g><path d="M 14.875 -16.9375 L 14.875 -21 L 2.238281 -21 L 2.238281 0 L 14.875 0 L 14.875 -4.058594 L 6.859375 -4.058594 L 6.859375 -8.46875 L 13.71875 -8.46875 L 13.71875 -12.527344 L 6.859375 -12.527344 L 6.859375 -16.9375 Z M 14.875 -16.9375 "/></g></g></g><g fill="#ffffff" fill-opacity="1"><g transform="translate(133.542816, 237.534858)"><g><path d="M 14.699219 -21 L 9.695312 -5.984375 L 4.691406 -21 L -0.453125 -21 L 7.105469 0 L 12.285156 0 L 19.84375 -21 Z M 14.699219 -21 "/></g></g></g><g fill="#ffffff" fill-opacity="1"><g transform="translate(154.162135, 237.534858)"><g/></g></g><g fill="#ffffff" fill-opacity="1"><g transform="translate(163.792979, 237.534858)"><g><path d="M 14.910156 0 L 19.84375 0 L 12.285156 -21 L 7.105469 -21 L -0.453125 0 L 4.480469 0 L 5.773438 -3.953125 L 13.613281 -3.953125 Z M 7 -7.804688 L 9.695312 -16.132812 L 12.390625 -7.804688 Z M 7 -7.804688 "/></g></g></g><g fill="#ffffff" fill-opacity="1"><g transform="translate(184.412301, 237.534858)"><g><path d="M 20.367188 -21 L 13.683594 -6.472656 L 7.070312 -21 L 2.066406 -21 L 2.066406 0 L 6.683594 0 L 6.683594 -12.527344 L 12.355469 0 L 15.011719 0 L 20.71875 -12.492188 L 20.71875 0 L 25.335938 0 L 25.335938 -21 Z M 20.367188 -21 "/></g></g></g><g fill="#ffffff" fill-opacity="1"><g transform="translate(213.045503, 237.534858)"><g><path d="M 20.367188 -21 L 13.683594 -6.472656 L 7.070312 -21 L 2.066406 -21 L 2.066406 0 L 6.683594 0 L 6.683594 -12.527344 L 12.355469 0 L 15.011719 0 L 20.71875 -12.492188 L 20.71875 0 L 25.335938 0 L 25.335938 -21 Z M 20.367188 -21 "/></g></g></g><g fill="#ffffff" fill-opacity="1"><g transform="translate(241.67871, 237.534858)"><g><path d="M 14.910156 0 L 19.84375 0 L 12.285156 -21 L 7.105469 -21 L -0.453125 0 L 4.480469 0 L 5.773438 -3.953125 L 13.613281 -3.953125 Z M 7 -7.804688 L 9.695312 -16.132812 L 12.390625 -7.804688 Z M 7 -7.804688 "/></g></g></g><g fill="#ffffff" fill-opacity="1"><g transform="translate(262.298033, 237.534858)"><g><path d="M 13.019531 -8.644531 C 15.503906 -9.378906 17.253906 -11.6875 17.253906 -14.558594 C 17.253906 -18.128906 14.59375 -21 10.988281 -21 L 2.066406 -21 L 2.066406 0 L 6.683594 0 L 6.683594 -8.121094 L 8.539062 -8.121094 L 13.71875 0 L 18.898438 0 Z M 10.289062 -11.933594 L 6.683594 -11.933594 L 6.683594 -16.902344 L 10.289062 -16.902344 C 11.757812 -16.902344 12.84375 -15.855469 12.84375 -14.417969 C 12.84375 -12.949219 11.757812 -11.933594 10.289062 -11.933594 Z M 10.289062 -11.933594 "/></g></g></g></svg>
